<svg xmlns="http://www.w3.org/2000/svg" xmlns:xlink="http://www.w3.org/1999/xlink" viewBox="0 0 500 77.3">
  <polygon points="492.177,76.471 468.127,76.471 453.529,52.852 453.529,76.471 432.913,76.471 432.913,0.595 453.529,0.595 453.529,46.308 468.424,24.875 490.993,24.875 472.365,48.583"></polygon>
  <polygon points="326.385,24.875 313.773,76.471 291.769,76.471 285.602,48.868 279.532,76.471 257.529,76.471 244.917,24.875 265.402,24.875 269.574,57.975 276.687,24.875 294.613,24.875 301.728,57.975 305.9,24.875"></polygon>
  <path d="M248.048,61.294c0,10.242-9.065,16.597-24.945,16.597c-17.133,0-25.022-4.262-26.843-12.422 c-0.444-1.992-0.569-4.175-0.569-5.788h19.634c0,0.569,0.061,1.89,0.474,2.751c0.773,1.605,2.437,2.561,6.637,2.561 c4.313,0,6.07-1.327,6.07-3.033c0-1.992-1.124-3.009-6.542-4.364l-10.624-2.654c-10.139-2.536-15.081-6.83-15.081-15.744 c0-9.105,9.486-16.123,24.564-16.123c14.303,0,22.401,4.362,24.756,11.191c0.551,1.607,0.948,6.069,0.948,7.017h-19.158 c0-0.475-0.178-1.892-0.381-2.277c-0.549-1.037-2.362-2.18-5.596-2.18c-4.201,0-6.069,0.948-6.069,2.654 c0,1.518,2.164,1.896,5.785,2.845l11.569,3.036C242.675,47.98,248.048,52.379,248.048,61.294z">
  </path>
  <polygon points="197.686,24.875 185.069,76.471 163.066,76.471 156.903,48.868 150.831,76.471 128.829,76.471 116.212,24.875 136.7,24.875 140.873,57.975 147.987,24.875 165.911,24.875 173.025,57.975 177.199,24.875"></polygon>
  <polygon points="64.145,76.471 42.711,76.471 22.128,41.757 22.128,76.471 0.316,76.471 0.316,0.88 22.035,0.88 42.045,35.402 42.045,0.88 64.145,0.88 "></polygon>
  <path d="M500.316,73.433c0,1.825-1.479,3.304-3.302,3.304c-1.8,0-3.296-1.509-3.296-3.304 c0-1.817,1.477-3.302,3.296-3.302C498.866,70.131,500.316,71.585,500.316,73.433z M499.808,73.433 c0-1.551-1.229-2.789-2.785-2.789c-1.552,0-2.779,1.238-2.779,2.789c0,1.514,1.252,2.785,2.771,2.785 C498.564,76.218,499.808,74.987,499.808,73.433z"></path>
  <path d="M431.564,51.051c0,1.492,0.036,3.012-0.095,4.551h-33.285c0,4.933,1.23,8.82,7.021,8.82 c4.816,0,6.445-2.463,6.445-5.31h19.539c0,11.097-10.705,18.778-25.984,18.778c-16.673,0-27.224-10.269-27.224-27.599 c0-16.757,11.729-27.029,27.409-27.029C422.161,23.263,431.564,35.67,431.564,51.051z M411.65,45.265 c0-4.728-1.42-8.249-6.544-8.249c-5.215,0-7.019,3.484-7.019,8.249H411.65z"></path>
  <path d="M376.369,51.051c0,1.492,0.032,3.012-0.094,4.551h-33.292c0,4.933,1.611,8.82,7.018,8.82 c4.823,0,6.449-2.463,6.449-5.31h19.538c0,11.097-10.698,18.778-25.987,18.778c-16.667,0-27.219-10.269-27.219-27.599 c0-16.757,11.725-27.029,27.408-27.029C366.958,23.263,376.369,35.67,376.369,51.051z M356.45,45.265 c0-4.728-1.042-8.249-6.543-8.249c-5.215,0-7.019,3.484-7.019,8.249H356.45z"></path>
  <path d="M119.628,51.051c0,1.492,0.033,3.012-0.096,4.551H86.148c0,4.933,1.234,8.82,7.019,8.82 c4.822,0,6.546-2.463,6.546-5.31h19.537c0,11.097-10.799,18.778-26.083,18.778c-16.669,0-27.218-10.269-27.218-27.599 c0-16.757,11.726-27.029,27.408-27.029C110.124,23.263,119.628,35.67,119.628,51.051z M99.713,45.265 c0-4.728-1.614-8.249-6.639-8.249c-5.122,0-7.019,3.484-7.019,8.249H99.713z"></path>
  <path d="M498.476,72.688c0,0.432-0.253,0.76-0.819,0.93l0.892,1.483h-0.895l-0.689-1.364h-0.445v1.364 h-0.729v-3.482h1.289C498.12,71.618,498.476,72.083,498.476,72.688z M497.724,72.662c0-0.44-0.309-0.599-0.809-0.599h-0.396v1.173 h0.45C497.43,73.236,497.724,73.063,497.724,72.662z"></path>
  <path d="M362.351,0.728h4.5c2.287,0,3.357,1.134,3.357,2.591c0,1.494-0.956,2.795-3.37,2.795h-1.505v2.613 h-2.982V0.728z M366.302,4.386c0.65,0,0.998-0.403,0.998-0.965c0-0.538-0.318-0.909-0.986-0.909h-0.98v1.874H366.302z"></path><path d="M372.959,6.025V3.454c0-1.95,1.924-2.859,4.12-2.859c2.174,0,4.185,0.763,4.185,2.859v2.559 c0,2.053-2.04,2.848-4.156,2.848C374.895,8.861,372.959,8.123,372.959,6.025z M378.252,6.069V3.377c0-0.606-0.532-0.91-1.158-0.91 c-0.736,0-1.126,0.292-1.126,0.91v2.657c0,0.607,0.39,0.956,1.156,0.956C377.818,6.99,378.252,6.642,378.252,6.069z"></path><path d="M384.184,0.728h2.984v6.161h4.182v1.839h-7.166V0.728z"></path>
  <path d="M393.546,7.729l1.521-1.447c0.591,0.404,1.563,0.83,2.447,0.83c0.55,0,1.024-0.201,1.024-0.539 c0-0.346-0.432-0.492-0.938-0.638l-1.362-0.405c-1.416-0.426-2.198-1.189-2.198-2.322c0-1.413,1.488-2.603,3.82-2.603 c1.275,0,2.71,0.213,3.658,0.921l-1.402,1.47c-0.563-0.359-1.505-0.708-2.168-0.708c-0.651,0-1.028,0.224-1.028,0.56 c0,0.394,0.738,0.506,1.375,0.718l1.128,0.381c1.549,0.529,2.287,1.28,2.287,2.302c0,1.838-2.129,2.611-4.14,2.611 C396.036,8.861,394.531,8.515,393.546,7.729z"></path>
  <path d="M404.529,0.728h2.983v3.479l2.574-3.479h2.896l-2.446,3.165l2.475,4.835h-3.228l-1.49-3.13 l-0.78,0.863v2.267h-2.983V0.728z"></path>
  <path d="M417.946,0.719h3.79l2.893,8.009h-3.065l-0.435-1.347h-2.967l-0.435,1.347h-2.75L417.946,0.719z M420.535,5.631l-0.868-2.669h-0.046l-0.852,2.669H420.535z"></path>
</svg>
